<?xml version="1.0" encoding="utf-8"?>
<!-- Generator: Adobe Illustrator 15.0.2, SVG Export Plug-In . SVG Version: 6.00 Build 0)  -->
<!DOCTYPE svg PUBLIC "-//W3C//DTD SVG 1.1//EN" "http://www.w3.org/Graphics/SVG/1.1/DTD/svg11.dtd">
<svg version="1.1" id="Layer_1" xmlns="http://www.w3.org/2000/svg" xmlns:xlink="http://www.w3.org/1999/xlink" x="0px" y="0px"
	 width="512px" height="533.2px" viewBox="0 0 512 533.2" enable-background="new 0 0 512 533.2" xml:space="preserve">
<path d="M253.904,203.124h50.781v-76.172h76.172v-50.78h-76.172V0h-50.781v76.172h-76.171v50.78h76.171V203.124z M152.343,431.638
	c-28.056,0-50.526,22.726-50.526,50.781s22.471,50.781,50.526,50.781s50.781-22.726,50.781-50.781S180.398,431.638,152.343,431.638z
	 M406.248,431.638c-28.057,0-50.533,22.726-50.533,50.781s22.477,50.781,50.533,50.781c28.056,0,50.78-22.726,50.78-50.781
	S434.304,431.638,406.248,431.638z M156.787,349.119c0-1.141,0.255-2.157,0.763-3.05l22.849-41.384h189.152
	c19.043,0,35.681-10.538,44.433-26.152L512,100.545l-44.434-24.373h-0.124l-28.068,50.78l-69.947,126.952H191.315l-3.298-6.855
	l-57.005-120.097l-24.12-50.78L82.897,25.391H0v50.781h50.781l91.408,192.585l-34.404,62.212
	c-3.936,7.364-6.224,15.608-6.224,24.498c0,28.056,22.726,50.781,50.781,50.781h304.686v-50.781H163.135
	C159.577,355.467,156.787,352.677,156.787,349.119z"/>
</svg>
